<svg width="32" height="33" viewBox="0 0 32 33" fill="none" xmlns="http://www.w3.org/2000/svg">
<path d="M3.23694 31.1284V31.9482C3.23694 32.2417 3.47206 32.4808 3.76545 32.4808H28.2275C28.521 32.4808 28.7581 32.2396 28.756 31.9482V31.1284C28.756 26.7637 25.4845 23.1827 21.3107 22.9235H10.6823C6.51047 23.1827 3.23694 26.7616 3.23694 31.1284Z" fill="#0B64FE"/>
<path d="M13.3409 19.455C13.271 19.4545 13.2017 19.4678 13.1368 19.4941C13.0719 19.5203 13.013 19.5592 12.9632 19.6082C12.9133 19.6573 12.8736 19.7156 12.8464 19.7801C12.8192 19.8445 12.8049 19.9136 12.8044 19.9836V25.0094C12.8063 25.3028 13.0455 25.54 13.3409 25.54H18.6541C18.7241 25.5402 18.7933 25.5267 18.8581 25.5001C18.9228 25.4737 18.9817 25.4346 19.0312 25.3854C19.0809 25.3362 19.1204 25.2775 19.1473 25.2131C19.1743 25.1486 19.1884 25.0793 19.1887 25.0094V19.9855C19.1884 19.9157 19.1743 19.8464 19.1473 19.782C19.1204 19.7175 19.0809 19.6589 19.0312 19.6096C18.9817 19.5603 18.9228 19.5214 18.8581 19.4948C18.7933 19.4683 18.7241 19.4548 18.6541 19.455H13.3409Z" fill="#FFCCAA"/>
<path d="M13.3409 19.455C13.1999 19.4545 13.0647 19.5098 12.9644 19.6089C12.8642 19.7079 12.8074 19.8427 12.8063 19.9836V21.5209C13.7329 22.197 14.8503 22.5614 15.9974 22.5614C17.1446 22.5614 18.262 22.197 19.1886 21.5209V19.9836C19.1876 19.8427 19.1307 19.7079 19.0305 19.6089C18.9303 19.5098 18.795 19.4545 18.6541 19.455H13.3409Z" fill="#FFB889"/>
<path d="M10.6823 22.9235C6.51047 23.1827 3.23694 26.7637 3.23694 31.1284V31.9482C3.23694 32.2417 3.47206 32.4808 3.76545 32.4808H4.83051C4.68962 32.4802 4.55469 32.4239 4.45525 32.3241C4.35581 32.2243 4.29998 32.0892 4.29998 31.9482V31.1284C4.29998 26.7637 7.57554 23.1827 11.7473 22.9235H10.6823Z" fill="#89C6FF"/>
<path d="M11.898 21.4725L10.3004 23.0661C10.2017 23.1659 10.1462 23.3005 10.1462 23.4409C10.1462 23.5812 10.2017 23.716 10.3004 23.8157L14.0262 27.5353C14.2331 27.7423 14.5687 27.7423 14.7756 27.5353L15.9975 26.3195L17.2173 27.5353C17.4243 27.7423 17.7599 27.7423 17.9669 27.5353L21.6885 23.8157C21.7873 23.716 21.8427 23.5812 21.8427 23.4409C21.8427 23.3005 21.7873 23.1659 21.6885 23.0661L20.0949 21.4725C20.0455 21.423 19.9867 21.3837 19.9221 21.3569C19.8574 21.3301 19.7881 21.3164 19.7181 21.3164C19.6482 21.3164 19.5789 21.3301 19.5142 21.3569C19.4496 21.3837 19.3908 21.423 19.3414 21.4725L15.9975 24.8164L12.6476 21.4725C12.5978 21.4226 12.5386 21.383 12.4734 21.3561C12.4082 21.3291 12.3383 21.3154 12.2678 21.3157C12.1288 21.3178 11.9961 21.3741 11.898 21.4725Z" fill="#0B64FE"/>
<path d="M15.7302 0.645688L1.9046 8.00261C1.8224 8.0421 1.75346 8.10466 1.70617 8.18264C1.65889 8.26062 1.6353 8.35067 1.63828 8.44182C1.64126 8.53297 1.67069 8.62128 1.72297 8.69602C1.77525 8.77074 1.84813 8.82865 1.93273 8.86269L9.95883 12.5401L10.198 12.1021H21.793L22.0301 12.5422L30.0602 8.86269C30.1448 8.82865 30.2177 8.77074 30.2701 8.69602C30.3223 8.62128 30.3517 8.53297 30.3547 8.44182C30.3577 8.35067 30.3341 8.26062 30.2868 8.18264C30.2396 8.10466 30.1705 8.0421 30.0883 8.00261L16.2627 0.647698C16.1802 0.604562 16.0886 0.582031 15.9955 0.582031C15.9024 0.582031 15.8107 0.604562 15.7283 0.647698L15.7302 0.645688Z" fill="#0B64FE"/>
<path d="M10.7586 13.7579C9.64735 13.7579 8.77521 14.7185 8.77521 15.8479C8.77521 16.9732 9.64735 17.9378 10.7566 17.9378C10.9108 17.9356 11.064 17.914 11.2128 17.8735V13.8163C11.0637 13.7783 10.9125 13.7587 10.7586 13.7579Z" fill="#FFB889"/>
<path d="M23.2198 15.8479C23.2198 16.9732 22.3477 17.9378 21.2384 17.9378C21.0842 17.9356 20.931 17.914 20.7822 17.8735V13.8163C20.9313 13.7783 21.0845 13.7587 21.2384 13.7579C22.3477 13.7579 23.2198 14.7185 23.2198 15.8479Z" fill="#FFCCAA"/>
<path d="M15.9975 8.48285C14.3436 8.48285 12.8525 8.63156 11.7353 8.8948C11.1766 9.02744 10.7104 9.18217 10.3406 9.39318C9.9749 9.60216 9.62926 9.92369 9.62323 10.402C9.59108 10.5587 9.22534 12.4898 10.7144 13.9749L10.8712 14.1317H21.1218L21.2766 13.9749C22.7636 12.4879 22.4019 10.5587 22.3717 10.402C22.3637 9.92369 22.018 9.60216 21.6523 9.39318C21.214 9.16218 20.7451 8.99439 20.2597 8.8948C19.1424 8.63156 17.6493 8.48285 15.9975 8.48285Z" fill="#356287"/>
<path d="M11.7353 8.8948C11.1766 9.02744 10.7104 9.18217 10.3406 9.39318C9.97693 9.60216 9.62927 9.92369 9.62123 10.402C9.5911 10.5587 9.22535 12.4898 10.7144 13.9749L10.8712 14.1317H11.9362L11.7775 13.9749C10.2904 12.4898 10.6541 10.5587 10.6843 10.402C10.6923 9.92369 11.04 9.60216 11.4057 9.39318C11.7735 9.18217 12.2397 9.02744 12.7983 8.8948C13.7931 8.6597 15.0912 8.52305 16.5281 8.4929C16.3511 8.4909 16.1784 8.48285 15.9975 8.48285C14.3436 8.48285 12.8525 8.63156 11.7353 8.8948Z" fill="#2C5170"/>
<path d="M14.6813 10.1991C14.5403 10.198 14.4048 10.2528 14.3042 10.3515C14.2036 10.4501 14.1463 10.5847 14.1448 10.7256C14.141 11.2964 13.9115 11.8425 13.5064 12.2447C13.1012 12.6468 12.5533 12.8723 11.9825 12.8718H11.0902C10.95 12.8728 10.8159 12.929 10.717 13.0284C10.618 13.1277 10.5622 13.2621 10.5617 13.4023V16.0709C10.5617 19.0692 12.9933 21.4967 15.9976 21.4967C16.7108 21.4974 17.4171 21.3578 18.0763 21.0855C18.7355 20.8132 19.3347 20.4137 19.8394 19.9099C20.3442 19.406 20.7448 18.8076 21.0182 18.149C21.2918 17.4903 21.4327 16.7841 21.4333 16.0709V13.4023C21.4327 13.2617 21.3768 13.127 21.2773 13.0277C21.1779 12.9283 21.0433 12.8722 20.9028 12.8718H17.778C16.4858 12.8718 15.3966 11.9273 15.1997 10.6492C15.1803 10.5251 15.1176 10.4118 15.0227 10.3294C14.9279 10.247 14.8069 10.2009 14.6813 10.1991Z" fill="#FFCCAA"/>
<path d="M5.89553 5.88055L4.83047 6.44724V13.8705H5.89553V5.88055Z" fill="#89C6FF"/>
<path d="M4.83251 12.8075C4.69163 12.8075 4.55648 12.8634 4.45667 12.9628C4.35686 13.0622 4.30051 13.1972 4.29999 13.338V18.1389C4.29999 18.4343 4.53912 18.6733 4.83251 18.6713H5.89556C6.18895 18.6713 6.42607 18.4322 6.42407 18.1389V13.3361C6.42301 13.1962 6.367 13.0624 6.26811 12.9635C6.16922 12.8646 6.0354 12.8086 5.89556 12.8075H4.83251Z" fill="#FFCA28"/>
<path d="M15.9974 5.36407C14.3436 5.36407 12.8526 5.51681 11.7373 5.77C11.2559 5.86638 10.7896 6.02655 10.3507 6.24627C10.1696 6.33878 10.0063 6.46261 9.8684 6.612C9.71155 6.78226 9.6216 7.00354 9.61519 7.23496V10.3497C9.61519 10.3658 9.62123 10.3799 9.62324 10.396V10.402C9.60716 10.4743 9.52276 10.9365 9.58304 11.5494C9.98495 11.1556 10.1839 10.9446 10.5315 10.7014C10.8249 10.4964 11.255 10.2191 12.1934 9.97195C12.8365 9.80114 13.6564 9.66248 14.6089 9.59014C15.055 9.56402 15.5132 9.54794 15.9955 9.54794C16.4778 9.54794 16.94 9.56402 17.384 9.58813C18.3386 9.66248 19.1564 9.80114 19.7996 9.97195C20.736 10.2191 21.1681 10.4964 21.4614 10.7014C21.809 10.9426 22.008 11.1556 22.4119 11.5494C22.4516 11.1676 22.4381 10.7821 22.3718 10.404L22.3697 10.396C22.3697 10.3799 22.3777 10.3658 22.3777 10.3477V7.23496C22.3713 7.00354 22.2814 6.78226 22.1245 6.612C21.9867 6.46261 21.8234 6.33878 21.6423 6.24627C21.2034 6.02653 20.7371 5.86636 20.2557 5.77C19.1404 5.51681 17.6493 5.36609 15.9955 5.36609L15.9974 5.36407Z" fill="#0B64FE"/>
<path d="M4.83251 12.8075C4.69163 12.8075 4.55648 12.8634 4.45667 12.9628C4.35686 13.0622 4.30051 13.1972 4.29999 13.338V18.1408C4.29999 18.4343 4.53912 18.6733 4.83251 18.6733H5.89556C5.82546 18.6733 5.75604 18.6595 5.6913 18.6327C5.62656 18.6057 5.56777 18.5663 5.51829 18.5167C5.46881 18.467 5.42963 18.408 5.40299 18.3433C5.37634 18.2784 5.36276 18.209 5.36303 18.1389V13.3361C5.36303 13.0447 5.60216 12.8075 5.89556 12.8075H4.83251Z" fill="#ECB200"/>
<path d="M10.3527 6.2442C10.1717 6.33678 10.0084 6.4606 9.87041 6.60993C9.71253 6.78051 9.62185 7.00255 9.61519 7.2349V10.3477C9.61519 10.3658 9.62123 10.3798 9.62324 10.3959V10.4019C9.60716 10.4743 9.52276 10.9345 9.58304 11.5474C9.98495 11.1535 10.1839 10.9445 10.5315 10.7013L10.6561 10.6169L10.6843 10.4019V10.3959C10.6843 10.3798 10.6782 10.3658 10.6782 10.3477V7.2349C10.6782 6.98772 10.7948 6.76466 10.9314 6.61194C11.0699 6.4617 11.2338 6.33719 11.4157 6.2442C11.7835 6.04726 12.2437 5.89855 12.8024 5.76994C13.7931 5.54487 15.0932 5.40019 16.5281 5.37205C16.3512 5.36822 16.1743 5.36621 15.9974 5.36603C14.3436 5.36603 12.8526 5.51674 11.7373 5.76994C11.2567 5.86585 10.7911 6.02533 10.3527 6.2442Z" fill="#0B64FE"/>
<path d="M11.0902 12.8717C10.95 12.8728 10.8159 12.9291 10.717 13.0284C10.618 13.1277 10.5622 13.262 10.5617 13.4022V16.071C10.5617 18.4543 12.103 20.4719 14.2432 21.2012C13.3255 20.6992 12.5597 19.9594 12.0263 19.0596C11.4927 18.1598 11.2111 17.1331 11.2108 16.087V13.2154C11.2108 13.0908 11.253 12.9702 11.3273 12.8737L11.0902 12.8717Z" fill="#FFB889"/>
<path d="M8.57627 29.2936C8.50097 29.2905 8.42587 29.3034 8.35594 29.3316C8.28601 29.3596 8.22283 29.4022 8.17061 29.4566C8.11837 29.5108 8.07826 29.5757 8.05292 29.6466C8.02759 29.7176 8.01762 29.7932 8.02365 29.8683V32.4746H9.08267V29.8683C9.08842 29.797 9.07975 29.7254 9.0572 29.6576C9.03465 29.5897 8.99868 29.5271 8.95142 29.4735C8.90417 29.4199 8.8466 29.3763 8.78215 29.3454C8.71769 29.3144 8.64767 29.2969 8.57627 29.2936ZM23.465 29.2936C23.3895 29.2902 23.3142 29.3029 23.244 29.3309C23.1738 29.3589 23.1104 29.4015 23.058 29.4558C23.0054 29.5101 22.9652 29.575 22.9397 29.6461C22.9142 29.7173 22.9043 29.7931 22.9103 29.8683V32.4746H23.9694V29.8683C23.9751 29.7972 23.9665 29.7257 23.944 29.658C23.9216 29.5902 23.8858 29.5277 23.8388 29.4742C23.7917 29.4206 23.7344 29.3769 23.6701 29.3459C23.6059 29.3149 23.5362 29.2971 23.465 29.2936Z" fill="#89C6FF"/>
</svg>
